<svg width="301" height="78" viewBox="0 0 301 78" fill="none" xmlns="http://www.w3.org/2000/svg">
<path d="M286.528 76.0001V1.80005H299.028V76.0001H286.528Z" fill="#F67450"/>
<path d="M240.476 76.7001C235.342 76.7001 230.709 75.5667 226.576 73.3001C222.509 70.9667 219.309 67.7667 216.976 63.7001C214.642 59.6334 213.476 54.8334 213.476 49.3C213.476 43.7667 214.642 38.9667 216.976 34.9001C219.309 30.8334 222.509 27.6667 226.576 25.4C230.709 23.1334 235.342 22 240.476 22C244.942 22 248.942 23.0001 252.476 25C256.009 26.9334 258.809 29.9001 260.876 33.9001C262.942 37.9001 263.976 43.0334 263.976 49.3C263.976 55.5 262.976 60.6334 260.976 64.7001C258.976 68.7001 256.209 71.7001 252.676 73.7001C249.142 75.7001 245.076 76.7001 240.476 76.7001ZM241.976 66.0001C244.976 66.0001 247.642 65.3334 249.976 64.0001C252.376 62.6667 254.276 60.7334 255.676 58.2001C257.142 55.6667 257.876 52.7 257.876 49.3C257.876 45.8334 257.142 42.8667 255.676 40.4001C254.276 37.8667 252.376 35.9334 249.976 34.6001C247.642 33.2667 244.976 32.6001 241.976 32.6001C238.976 32.6001 236.276 33.2667 233.876 34.6001C231.542 35.9334 229.642 37.8667 228.176 40.4001C226.776 42.8667 226.076 45.8334 226.076 49.3C226.076 52.7 226.776 55.6667 228.176 58.2001C229.642 60.7334 231.542 62.6667 233.876 64.0001C236.276 65.3334 238.976 66.0001 241.976 66.0001ZM258.176 76.0001V63.4001L258.676 49.2001L257.676 35V1.80005H270.076V76.0001H258.176Z" fill="#F67450"/>
<path d="M171.823 76.7001C166.69 76.7001 162.057 75.5667 157.923 73.3001C153.857 70.9667 150.657 67.7667 148.323 63.7001C145.99 59.6334 144.823 54.8334 144.823 49.3C144.823 43.7667 145.99 38.9667 148.323 34.9001C150.657 30.8334 153.857 27.6667 157.923 25.4C162.057 23.1334 166.69 22 171.823 22C176.29 22 180.29 23.0001 183.823 25C187.357 26.9334 190.157 29.9001 192.223 33.9001C194.29 37.9001 195.323 43.0334 195.323 49.3C195.323 55.5 194.323 60.6334 192.323 64.7001C190.323 68.7001 187.557 71.7001 184.023 73.7001C180.49 75.7001 176.423 76.7001 171.823 76.7001ZM173.323 66.0001C176.323 66.0001 178.99 65.3334 181.323 64.0001C183.723 62.6667 185.623 60.7334 187.023 58.2001C188.49 55.6667 189.223 52.7 189.223 49.3C189.223 45.8334 188.49 42.8667 187.023 40.4001C185.623 37.8667 183.723 35.9334 181.323 34.6001C178.99 33.2667 176.323 32.6001 173.323 32.6001C170.323 32.6001 167.623 33.2667 165.223 34.6001C162.89 35.9334 160.99 37.8667 159.523 40.4001C158.123 42.8667 157.423 45.8334 157.423 49.3C157.423 52.7 158.123 55.6667 159.523 58.2001C160.99 60.7334 162.89 62.6667 165.223 64.0001C167.623 65.3334 170.323 66.0001 173.323 66.0001ZM189.523 76.0001V63.4001L190.023 49.2001L189.023 35V1.80005H201.423V76.0001H189.523Z" fill="#F67450"/>
<path d="M50.6 6H63.6V76H50.6V6ZM14.4 76H1.39999V6H14.4V76ZM51.6 46H13.3V34.9H51.6V46Z" fill="#F67450"/>
<path d="M299.028 1.7998H286.528V76H299.028V1.7998ZM300.028 77H285.528V0.799805H300.028V77Z" fill="black"/>
<path d="M270.076 1.7998H257.676V29.1699C256.338 27.6551 254.823 26.3897 253.13 25.375L252.476 25C249.163 23.125 245.44 22.1289 241.308 22.0117L240.476 22C235.342 22 230.709 23.1338 226.576 25.4004C222.51 27.6671 219.309 30.8337 216.976 34.9004L216.761 35.2832C214.571 39.2672 213.476 43.9393 213.476 49.2998C213.476 54.8331 214.642 59.6335 216.976 63.7002C219.309 67.7668 222.51 70.9665 226.576 73.2998C230.451 75.4248 234.766 76.5538 239.52 76.6865L240.476 76.7002C244.788 76.7002 248.632 75.8212 252.007 74.0635L252.676 73.7002C254.783 72.5076 256.614 70.9566 258.176 69.0527V76H270.076V1.7998ZM226.076 49.2998C226.076 45.8334 226.776 42.867 228.176 40.4004C229.642 37.8671 231.543 35.9329 233.876 34.5996C236.276 33.2664 238.976 32.5996 241.976 32.5996C244.975 32.5996 247.642 33.2664 249.976 34.5996L249.479 35.4678C247.314 34.2306 244.822 33.5996 241.976 33.5996C239.129 33.5996 236.599 34.2313 234.361 35.4746L234.36 35.4736C232.201 36.71 230.428 38.5061 229.045 40.8926L229.046 40.8936C227.748 43.1796 227.076 45.968 227.076 49.2998C227.076 52.5523 227.742 55.3416 229.041 57.6992L229.306 58.1406C230.651 60.3151 232.339 61.9693 234.369 63.1299C236.605 64.3704 239.133 65 241.976 65V66L241.417 65.9922C238.825 65.9193 236.462 65.336 234.329 64.2422L233.876 64C231.543 62.6667 229.642 60.7335 228.176 58.2002C226.863 55.8252 226.166 53.0693 226.084 49.9326L226.076 49.2998ZM249.976 34.5996C252.376 35.9329 254.276 37.8671 255.676 40.4004C257.142 42.867 257.876 45.8334 257.876 49.2998C257.876 52.6998 257.142 55.6669 255.676 58.2002L255.407 58.668C254.036 60.9726 252.226 62.75 249.976 64C247.642 65.3333 244.976 66 241.976 66V65C244.822 65 247.314 64.3691 249.479 63.1318L249.49 63.126C251.717 61.8888 253.486 60.0952 254.801 57.7168L254.811 57.6992C256.176 55.3412 256.876 52.5526 256.876 49.2998C256.876 45.9757 256.174 43.1938 254.816 40.9111L254.801 40.8838C253.486 38.5053 251.717 36.7118 249.49 35.4746L249.479 35.4688L249.976 34.5996ZM271.076 77H257.176V71.6016C255.967 72.7509 254.631 73.742 253.168 74.5703C249.465 76.666 245.225 77.7002 240.476 77.7002C235.19 77.7002 230.388 76.5313 226.095 74.1768L226.087 74.1719L226.078 74.167C221.858 71.7454 218.53 68.4177 216.108 64.1973C213.674 59.9539 212.476 54.976 212.476 49.2998C212.476 43.6236 213.674 38.6457 216.108 34.4023C218.531 30.1794 221.862 26.8821 226.089 24.5264L226.095 24.5234C230.388 22.1689 235.19 21 240.476 21C245.097 21 249.27 22.0365 252.969 24.1299H252.968C254.306 24.8634 255.542 25.7365 256.676 26.7471V0.799805H271.076V77Z" fill="black"/>
<path d="M201.424 1.7998H189.023V29.1699C187.685 27.6551 186.171 26.3897 184.478 25.375L183.823 25C180.511 23.125 176.788 22.1289 172.655 22.0117L171.823 22C166.69 22 162.057 23.1338 157.924 25.4004C153.857 27.6671 150.657 30.8337 148.323 34.9004L148.108 35.2832C145.919 39.2672 144.823 43.9393 144.823 49.2998C144.823 54.8331 145.99 59.6335 148.323 63.7002C150.657 67.7668 153.857 70.9665 157.924 73.2998C161.799 75.4248 166.113 76.5538 170.867 76.6865L171.823 76.7002C176.136 76.7002 179.98 75.8212 183.354 74.0635L184.023 73.7002C186.13 72.5076 187.962 70.9566 189.523 69.0527V76H201.424V1.7998ZM157.424 49.2998C157.424 45.8334 158.124 42.867 159.523 40.4004C160.99 37.8671 162.89 35.9329 165.224 34.5996C167.624 33.2664 170.323 32.5996 173.323 32.5996C176.323 32.5996 178.99 33.2664 181.323 34.5996L180.827 35.4678C178.662 34.2306 176.17 33.5996 173.323 33.5996C170.477 33.5996 167.947 34.2313 165.709 35.4746L165.708 35.4736C163.549 36.71 161.776 38.5061 160.393 40.8926L160.394 40.8936C159.096 43.1796 158.424 45.968 158.424 49.2998C158.424 52.5523 159.09 55.3416 160.389 57.6992L160.653 58.1406C161.998 60.3151 163.687 61.9693 165.717 63.1299C167.953 64.3704 170.48 65 173.323 65V66L172.765 65.9922C170.172 65.9193 167.81 65.336 165.677 64.2422L165.224 64C162.89 62.6667 160.99 60.7335 159.523 58.2002C158.211 55.8252 157.514 53.0693 157.432 49.9326L157.424 49.2998ZM181.323 34.5996C183.723 35.9329 185.623 37.8671 187.023 40.4004C188.49 42.867 189.224 45.8334 189.224 49.2998C189.224 52.6998 188.49 55.6669 187.023 58.2002L186.755 58.668C185.384 60.9726 183.573 62.75 181.323 64C178.99 65.3333 176.323 66 173.323 66V65C176.17 65 178.662 64.3691 180.827 63.1318L180.838 63.126C183.065 61.8888 184.834 60.0952 186.148 57.7168L186.158 57.6992C187.523 55.3412 188.224 52.5526 188.224 49.2998C188.224 45.9757 187.521 43.1938 186.164 40.9111L186.148 40.8838C184.834 38.5053 183.065 36.7118 180.838 35.4746L180.827 35.4688L181.323 34.5996ZM202.424 77H188.523V71.6016C187.315 72.7509 185.979 73.742 184.516 74.5703C180.813 76.666 176.572 77.7002 171.823 77.7002C166.537 77.7002 161.736 76.5313 157.442 74.1768L157.435 74.1719L157.426 74.167C153.205 71.7454 149.878 68.4177 147.456 64.1973C145.021 59.9539 143.823 54.976 143.823 49.2998C143.823 43.6236 145.021 38.6457 147.456 34.4023C149.879 30.1794 153.21 26.8821 157.437 24.5264L157.442 24.5234C161.736 22.1689 166.537 21 171.823 21C176.445 21 180.618 22.0365 184.316 24.1299H184.315C185.654 24.8634 186.89 25.7365 188.023 26.7471V0.799805H202.424V77Z" fill="black"/>
<path d="M14.4004 6H1.40039V76H14.4004V46H50.5996V76H63.5996V6H50.5996V34.9004H14.4004V6ZM64.5996 77H49.5996V47H15.4004V77H0.400391V5H15.4004V33.9004H49.5996V5H64.5996V77Z" fill="black"/>
<path d="M117.453 28.1292C117.292 27.9667 117.091 27.8492 116.875 27.781L103.852 23.6918C98.6438 22.0565 95.2556 24.9093 94.3428 25.8249C93.8103 26.3575 93.4025 26.919 93.1936 27.408L87.3922 41.054C87.0599 41.8346 87.1731 42.8751 87.694 43.9126C88.4399 45.3941 89.7836 46.4621 91.3899 46.8467C93.1878 47.2776 95.0524 46.6928 96.5122 45.2345C96.8938 44.8529 97.2189 44.4321 97.4104 44.0751L99.3607 40.4576C99.6814 39.8583 100.147 39.2372 100.638 38.7467C102.311 37.0722 103.106 37.8384 103.444 38.1634C106.362 40.98 121.661 56.3439 121.661 56.3439C122.205 56.8881 122.092 57.9198 121.411 58.5989C120.732 59.2766 119.699 59.3927 119.156 58.8514L114.858 54.5548C114.304 53.999 113.41 53.999 112.856 54.5548C112.301 55.1047 112.301 56.0029 112.856 56.5558L117.154 60.8553C117.696 61.3966 117.583 62.4283 116.904 63.106C116.225 63.7865 115.19 63.8997 114.651 63.3585L110.351 59.0618C109.797 58.5075 108.9 58.5075 108.349 59.0618C107.794 59.6118 107.794 60.51 108.349 61.0643L112.647 65.3624C113.189 65.9051 113.072 66.9368 112.394 67.6159C111.717 68.2936 110.685 68.4097 110.141 67.8655L105.843 63.5689C105.291 63.016 104.393 63.016 103.84 63.5689C103.289 64.1217 103.289 65.0199 103.84 65.5699L108.138 69.8694C108.682 70.4136 108.566 71.4453 107.889 72.1244C107.207 72.8035 106.175 72.9181 105.634 72.3754L100.401 67.1385C101.148 66.0154 100.945 64.3858 99.8366 63.2728C98.5945 62.0322 96.6834 61.9175 95.5777 63.0262C96.6834 61.919 96.5746 60.0108 95.3296 58.7672C94.0846 57.5251 92.1778 57.4105 91.0721 58.5162C92.1778 57.4105 92.0661 55.5038 90.8196 54.2617C89.5775 53.0166 87.6708 52.9034 86.5622 54.0092C87.6708 52.9034 87.5562 50.9967 86.3126 49.7503C85.1488 48.5865 83.4148 48.4283 82.2873 49.3149L73.8145 40.8421C73.2616 40.2878 72.3634 40.2878 71.8105 40.8421C71.2591 41.3935 71.2591 42.2917 71.8105 42.846L80.2616 51.2957L77.7556 53.8017C76.6499 54.9059 76.7616 56.8126 78.0081 58.0591C79.2502 59.3012 81.1569 59.4159 82.2641 58.3087C81.1569 59.4159 81.2701 61.3211 82.5151 62.5662C83.7572 63.8068 85.6654 63.9244 86.7726 62.8172C85.6654 63.9244 85.7771 65.8296 87.0222 67.0732C88.2672 68.3182 90.1739 68.4314 91.2796 67.3257C90.1739 68.43 90.2856 70.3352 91.5307 71.5817C92.7742 72.8238 94.6795 72.9385 95.7881 71.8313L98.4349 69.186L103.631 74.3808C105.29 76.0394 108.095 75.9233 109.891 74.1298C110.766 73.2548 111.233 72.1375 111.299 71.0317C112.404 70.9665 113.523 70.4977 114.397 69.6213C115.273 68.7463 115.743 67.629 115.81 66.5232C116.914 66.4579 118.029 65.9907 118.908 65.1143C119.783 64.2378 120.252 63.1219 120.316 62.0148C121.423 61.9509 122.54 61.4837 123.417 60.6043C125.21 58.8108 125.32 56.0015 123.666 54.3458L121.475 52.1532L130.472 43.158C131.025 42.6066 131.025 41.7084 130.472 41.1555L117.453 28.1292Z" fill="url(#paint0_linear_10_30)"/>
<path d="M138.775 31.2953L127.31 19.8304C126.204 18.7232 124.409 18.7232 123.302 19.8304L119.294 23.8353C118.188 24.9411 118.188 26.7361 119.294 27.8418L130.761 39.3096C131.868 40.4153 133.663 40.4153 134.768 39.3096L138.775 35.3032C139.879 34.196 139.879 32.4011 138.775 31.2953ZM132.757 37.1345C131.474 37.1345 130.433 36.094 130.433 34.8098C130.433 33.5256 131.474 32.4838 132.757 32.4838C134.041 32.4838 135.083 33.5242 135.083 34.8098C135.082 36.0926 134.041 37.1345 132.757 37.1345Z" fill="url(#paint1_linear_10_30)"/>
<defs>
<linearGradient id="paint0_linear_10_30" x1="101.142" y1="23.1956" x2="101.142" y2="75.5535" gradientUnits="userSpaceOnUse">
<stop stop-color="#F67450"/>
<stop offset="0.605769" stop-color="#90442F"/>
</linearGradient>
<linearGradient id="paint1_linear_10_30" x1="129.034" y1="19" x2="129.034" y2="40.1389" gradientUnits="userSpaceOnUse">
<stop stop-color="#F67450"/>
<stop offset="0.605769" stop-color="#90442F"/>
</linearGradient>
</defs>
</svg>
