<svg width="25" height="25" viewBox="0 0 25 25" fill="none" xmlns="http://www.w3.org/2000/svg">
<path d="M20.697 17.0373C20.3738 17.7709 19.9913 18.4463 19.5481 19.0672C18.9439 19.9136 18.4493 20.4996 18.0681 20.8249C17.4771 21.359 16.844 21.6325 16.166 21.648C15.6792 21.648 15.0922 21.5119 14.409 21.2358C13.7234 20.961 13.0935 20.8249 12.5174 20.8249C11.9133 20.8249 11.2654 20.961 10.5723 21.2358C9.87823 21.5119 9.31908 21.6558 8.89157 21.6701C8.2414 21.6973 7.59335 21.416 6.94647 20.8249C6.53361 20.471 6.01719 19.8644 5.39855 19.005C4.73479 18.0872 4.18909 17.023 3.76158 15.8097C3.30374 14.4992 3.07422 13.2301 3.07422 12.0016C3.07422 10.5942 3.38367 9.38039 4.0035 8.36322C4.49063 7.54619 5.13869 6.90169 5.94979 6.42855C6.76088 5.95542 7.63727 5.71432 8.58106 5.69889C9.09748 5.69889 9.77469 5.85587 10.6163 6.16438C11.4554 6.47392 11.9943 6.6309 12.2305 6.6309C12.4072 6.6309 13.0057 6.44735 14.0205 6.08142C14.9801 5.74206 15.79 5.60154 16.4535 5.65689C18.2514 5.79948 19.6021 6.49596 20.5004 7.75074C18.8925 8.70815 18.0971 10.0491 18.1129 11.7694C18.1274 13.1093 18.6221 14.2244 19.5942 15.1097C20.0348 15.5206 20.5268 15.8382 21.0742 16.0638C20.9555 16.4021 20.8302 16.7261 20.697 17.0373ZM16.5736 1.09199C16.5736 2.14223 16.1831 3.12284 15.4049 4.03048C14.4657 5.10948 13.3297 5.73298 12.0978 5.6346C12.0821 5.5086 12.073 5.37599 12.073 5.23665C12.073 4.22842 12.5197 3.14941 13.3128 2.26718C13.7088 1.82049 14.2124 1.44907 14.8232 1.15279C15.4326 0.860923 16.009 0.699515 16.5511 0.671875C16.567 0.812276 16.5736 0.952699 16.5736 1.09199Z" fill="black"/>
</svg>
