<svg width="25" height="24" viewBox="0 0 25 24" fill="none" xmlns="http://www.w3.org/2000/svg">
<g clip-path="url(#clip0_71_2607)">
<path d="M22.0733 12.6349C22.0733 11.7794 22.0052 11.1552 21.8578 10.5078H12.2773V14.3689H17.9009C17.7875 15.3284 17.1753 16.7734 15.8147 17.7444L15.7957 17.8737L18.8248 20.2664L19.0347 20.2877C20.9621 18.4728 22.0733 15.8023 22.0733 12.6349Z" fill="#4285F4"/>
<path d="M12.2797 22.8074C15.0348 22.8074 17.3477 21.8825 19.0371 20.2873L15.8171 17.744C14.9555 18.3567 13.799 18.7844 12.2797 18.7844C9.58134 18.7844 7.29111 16.9695 6.4747 14.4609L6.35504 14.4713L3.20525 16.9567L3.16406 17.0735C4.84205 20.4722 8.28877 22.8074 12.2797 22.8074Z" fill="#34A853"/>
<path d="M6.47327 14.4623C6.25785 13.8149 6.13318 13.1213 6.13318 12.4046C6.13318 11.6878 6.25785 10.9942 6.46194 10.3468L6.45623 10.209L3.26697 7.68359L3.16263 7.7342C2.47105 9.14456 2.07422 10.7283 2.07422 12.4046C2.07422 14.0808 2.47105 15.6645 3.16263 17.0748L6.47327 14.4623Z" fill="#FBBC05"/>
<path d="M12.2797 6.02292C14.1958 6.02292 15.4883 6.86681 16.2253 7.57202L19.1051 4.70508C17.3364 3.02886 15.0348 2 12.2797 2C8.28877 2 4.84205 4.33514 3.16406 7.73381L6.46337 10.3464C7.29111 7.83789 9.58134 6.02292 12.2797 6.02292Z" fill="#EA4335"/>
</g>
<defs>
<clipPath id="clip0_71_2607">
<rect width="24" height="24" fill="white" transform="translate(0.0742188)"/>
</clipPath>
</defs>
</svg>
